<svg width="150" height="150" viewBox="0 0 150 150" fill="none" xmlns="http://www.w3.org/2000/svg">
<path fill-rule="evenodd" clip-rule="evenodd" d="M75 150C116.421 150 150 116.421 150 75C150 33.5786 116.421 0 75 0C33.5786 0 0 33.5786 0 75C0 116.421 33.5786 150 75 150ZM133.333 75C133.333 107.217 107.217 133.333 75 133.333C90.471 133.333 105.308 127.188 116.248 116.248C127.188 105.308 133.333 90.471 133.333 75ZM75 16.6667C42.7834 16.6667 16.6667 42.7834 16.6667 75C16.6667 107.217 42.7834 133.333 75 133.333V75V16.6667ZM116.067 33.5716C105.145 22.7449 90.3857 16.6667 75 16.6667C91.0163 16.6667 105.525 23.1215 116.067 33.5716ZM133.333 75C133.333 59.7916 127.394 45.1956 116.801 34.3125C127.032 44.8215 133.333 59.1748 133.333 75Z" fill="black"/>
</svg>
