<svg width="818" height="779" viewBox="0 0 818 779" fill="none" xmlns="http://www.w3.org/2000/svg">
<path d="M37 37.4065L37 179.101V335.723V428.256M37 37.4065H377.053H643.734C684.256 37.4065 717.106 70.2565 717.106 110.779V186.565V261.144V262.35C717.106 302.873 684.256 335.723 643.734 335.723H632.093H589.586H547.08L775.538 693.76C788.723 714.424 773.881 741.5 749.369 741.5H717.106H547.08M37 37.4065L37 232.831M37 428.256V662.484C37 706.123 72.3769 741.5 116.017 741.5H377.053H547.08M37 428.256L37 232.831M547.08 741.5L437.269 570.684C430.519 560.183 418.893 553.836 406.41 553.836H362.238H298.037M37 232.831H362.238" stroke="black" stroke-width="73.3725" stroke-linecap="round"/>
</svg>
